<svg xmlns="http://www.w3.org/2000/svg" fill="currentColor" viewBox="0 0 2223 1639"><path d="M2200.722 136.035c-33.683-3.922-54.022 34.683-77.778 22.222 7.866-33.661 76.661-63.017 72.222-72.222-12.855 11.667-21.9 15.978-31.611 17.217l.2-19.339c9.456-23.611 48.978-49.7 25.856-64.544-8.65 16.128-30.417 39.272-30.544 60.039l-14.45 23.689c-1.611-.122-3.267-.256-5.005-.394 2.244-104.356-5.961 38.606-33.333 50-3.567-22.361 7.222-59.072-5.555-72.222-19.1 36.461-.2 110.911-44.445 122.222-5.706-35.478 20.5-68.206 5.556-94.444-27.033 45.189-11.117 133.328-55.556 161.111-2.344-54.883 12.2-60.817 11.111-116.667-56.528 23.1-14.467 144.794-72.222 166.667-4.006-50.367 17.255-104.878 11.111-138.889-52.656 41.789-9.911 178.978-83.333 200 11.994-47.261 20.172-98.344 22.222-155.556-74.494 23.672-15.078 210.822-94.444 211.111 9.717-51.439 30.9-120.9 16.667-177.778-66.594 37.128-20.389 216.628-94.444 227.778 9.922-72.117 20.272-109.494 22.222-188.889-92.361 26.156-11.111 225.928-111.111 244.444 12.311-87.406 25.572-148.4 22.222-227.778-95.906 53.783-12.695 270.894-133.333 288.889 19.228-75.217 35.706-153.189 33.333-250-73.778 36.394-69.961 185.25-88.889 283.333-18.961-.167-39.917 26.383-55.556 11.111 25.533-76.322 36.678-167.028 33.333-272.222-77.272 52.356-68.617 190.644-88.889 300-16.544 11.233-32.522 23.033-61.111 22.222 25.661-87.311 34.556-220.983 38.889-311.111-82.928 70.111-82.061 190.317-94.444 327.778-16.733 12.894-33.933 25.328-61.111 27.778 21.283-99.089 26.578-214.161 38.889-322.222-85.728 56.189-90.072 192.033-94.444 344.444-31.172 4.017-43.594 26.778-77.778 27.778 40.722-86.233 30.233-215.756 44.444-338.889-89.005 48.15-104.206 217.928-105.556 372.222-31.022 6.011-42.172 31.9-77.778 33.333 35.144-94.494 33.239-255.639 27.778-372.222-98.183 80.256-107.744 249.739-88.889 411.111-27.672 9.461-56.378 47.2-88.889 33.333 46.356-94.311 27.356-267.706 38.889-411.111-110.789 70.85-114.556 271.556-111.111 472.222-26.394 10.639-38.228 35.844-72.222 38.889 58.833-122.8 4.478-300.622 16.667-461.111-124.583 52-119.283 343.089-88.889 516.667-30.95 26.455-49.744 65.072-100 72.222 50.611-177.378 4.456-375.706-16.667-533.333-122.994 120.872-102.956 426.867-61.111 622.222-86.667 100.578-207.194 195.678-288.889 300-20.361 26-55.517 56.389-50 72.222h100c109.178-111.194 193.672-247.072 305.556-355.556 146.106 89.9 326.906 224.978 561.111 172.222-144.756-89.756-293.539-208.917-494.444-233.333 31.667-31.3 58.45-67.478 100-88.889 123.489 105.456 280.85 245.267 494.444 194.444-156.65-65.572-236.728-207.717-438.889-227.778 61.217-105.239 130.972-33.867 188.889 5.556 89.933 61.211 196.317 148.728 338.889 122.222-116.2-87.506-217.75-189.661-377.778-233.333 26.094-22.056 53.172-43.128 88.889-55.556 105.772 83.911 205.839 200.483 388.889 188.889-62.583-54.594-120.255-91.378-177.778-133.333-20.428-14.9-36.4-40.817-61.111-55.556-27.633-16.489-63.678-11.778-83.333-44.444 15.872-19.317 48.867-21.506 72.222-33.333 85.5 80.6 182.617 204.511 333.333 183.333-100.117-62.85-164.328-161.6-283.333-205.556 19.35-19.539 49.833-27.944 77.778-38.889 82.833 72.722 137.722 173.389 277.778 188.889-48.489-73.744-139.361-153.222-222.222-211.111 98.794-52.811 127.583 54.339 200 100 45.467 28.667 87.505 36.483 138.889 50-53.067-83.972-135.067-139.006-216.667-194.444 27.711-.067 35.661-19.894 66.667-16.667 81.172 48.05 165.456 147.367 277.778 127.778-69.061-56.867-142.144-109.706-222.222-155.556 118.483-81.561 179.311 121.194 316.667 77.778-64.628-48.044-110.906-100.706-205.556-127.778 92.289-90.217 168.106 94.006 300 50-61.761-40.094-125.05-78.65-194.444-111.111 76.667-83.417 166.367 88.111 266.667 33.333-53.289-35.6-114.161-63.617-183.333-83.333 50.972-101.528 153.572 62.922 244.444 5.556-56.122-21.656-103.9-51.656-166.667-66.667 39.222-95.867 155.467 39.944 233.333-11.111-41.25-39.083-128.8-11.917-155.555-55.556 36.417-55.078 155.817 22.106 205.555-27.778C2070 342.685 2015 340.274 1972.944 324.924c19.028-55.05 143.445-4.7 177.778-44.444-38.167-7.611-94.822-2.539-122.222-5.556 24.972-52.806 125.628-29.928 155.556-77.778-43.583-6.45-74.578 29-105.556 16.667 16.527-50.139 98.039-35.294 122.222-77.778"/></svg>
