<svg xmlns="http://www.w3.org/2000/svg" fill="currentColor" viewBox="-1.173 61.879 61.018 52.857"><path d="M47.736 79.813c.738 1.241 8.327-2.562 8.873-1.294 3.022 7.014 2.925 14.327-2.285 20.754-4.44-5.684-10.342-10.879-11.412-9.856-1.153 1.103 3.811 7.02 7.457 13.76a37 37 0 0 1-4.314 2.978 48 48 0 0 1-4.845 2.505c-1.295-4.703-2.995-9.314-4.248-11.405-.523-.872-.967-1.305-1.272-1.124-1.118.664.67 7.192 1.098 14.284a58 58 0 0 1-7.559 2.073c-.156-5.51-.986-10.876-1.952-12.685-.251-.471-.511-.702-.771-.63-1.41.39-1.226 5.014-1.867 14.045-2.7.312-5.35.408-7.85.253.68-4.642.855-8.598.154-9.752-.128-.208-.282-.326-.469-.339-1.571-.109-1.742 4.214-2.394 9.816-5.581-.797-9.989.98-12.306-2.917C.024 107.336-.42 99.755.393 95.89c5.638-.1 10.787 1.142 10.729.34a.4.4 0 0 0-.036-.127c-.425-.89-4.48-2.694-10.06-2.617.946-3.006 2.482-6.112 4.446-9.141 5.913 3.363 9.965 7.12 11.182 6.396.213-.127.171-.425-.077-.855-.946-1.638-4.898-5.18-9.161-8.324a57.4 57.4 0 0 1 6.073-6.89c7.836 7.068 8.525 11.673 10.25 10.976.72-.29-.027-2.22-1.544-4.77-1.521-2.558-3.817-5.734-6.178-8.51a52 52 0 0 1 5.2-3.935c8.242 11.65 8.16 11.953 9.968 11.249 1.339-.522-.979-8.06-4.644-14.215l-.008-.014c2.37-1.089 4.624-1.794 6.762-2.158 4.585 7.421 6.965 15.325 8.3 15.034 1.23-.268.502-7.288-2.896-15.226 5.565.597 11.472 6.193 15.043 10.803.803 1.038-6.706 4.731-6.006 5.908z"/></svg>
