<svg xmlns="http://www.w3.org/2000/svg" fill="currentColor" viewBox="5.625 -0.99 51.287 51.459"><path d="M16.602 43.819c5.61 5.28 12.919 6.604 15.71 4.904 4.156-2.529 1.71-9.335 2.323-10.589 7.378 7.134 13.194 6.441 19.979-1.738 1.762-2.125 1.635-7.231-.243-12.932-.41 1.003-.888 1.932-1.46 2.74-3.994 5.644-9.839 8.152-11.106 7.173a.6.6 0 0 1-.191-.242c-1.03-2.366 5.214-5.088 7.672-8.864.973-1.494 1.744-4.321 2.323-7.192-1.974-3.655-4.618-7.198-7.9-10.04q-.337-.289-.676-.563c.361 3.639.72 7.863.076 10.194-1.88 6.818-5.236 10.995-5.997 10.378-1.167-.948 2.727-6.796 3.755-10.934.737-2.966.2-8.437-.164-11.324-2.867-1.846-5.927-3.042-8.95-3.777 2.34 3.26 3.396 6.438 3.031 9.992-.579 5.64-2.364 11.194-3.315 10.83a.2.2 0 0 1-.079-.058c-.712-.85 1.709-9.222 1.301-12.963-.284-2.613-1.32-5.563-2.994-8.235A38 38 0 0 0 23.367 0c1.412 2.143 2.485 4.165 2.782 5.73.592 3.12-.008 9.898-1.424 9.62a.44.44 0 0 1-.231-.13c-.996-1.026.335-7.485-.716-10.265-.43-1.136-1.547-3.018-2.761-4.91C15.792.292 11.9 1.468 11.26 1.99c-.845.688-3.71 5.928-4.41 13.14.985 1.317 2.028 2.41 3.01 3.082 2.68 1.832 9.714 5.499 9.42 6.514-.285.983-5.05-.241-7.814-2.713a9 9 0 0 1-.261-.243c-1.153-1.12-2.86-2.8-4.487-4.62q-.022.593-.024 1.199c.003 2.143.529 4.489 1.214 6.866 2.657 2.191 5.317 3.602 7.824 4.466 4 1.38 9.047 2.182 8.881 3.058s-6.025 1.51-9.512-.425c-1.526-.846-3.731-2.69-5.806-4.588q-.442-.405-.873-.81c.66 2.122 1.376 4.238 1.9 6.224q.297 1.126.683 2.166c1.913 1.565 3.556 2.545 5.739 3.028 3.845.85 8.017-.184 7.942 1.29s-5.093 1.676-7.333.776c-1.51-.606-2.976-1.516-5.768-3.66a22 22 0 0 0 5.017 7.078"/></svg>
