<svg xmlns="http://www.w3.org/2000/svg" fill="currentColor" viewBox="58.245 24.4 45.865 53.424"><path d="M101.807 64.057c-2.72 7.976-9.65 13.08-19.568 12.677-1.323-.053.073-8.753-1.565-8.83-.99-.048-3.619 7.916-5.111 7.777-4.75-.44-13.835-.294-15.873-11.687 7.425 4.848 15.551 4.157 16.277 1.94q.026-.076.038-.154c.46-2.737-8.677-.648-16.655-9.243a51 51 0 0 1 .188-2.354 27.9 27.9 0 0 1 2.292-8.566c5.928 7.19 15.205 14.091 15.51 12.856.337-1.365-4.939-4.3-13.883-15.964 1.482-2.455 3.275-4.615 5.219-6.5 3.11 9.347 10.556 16.225 11.097 15.246a.3.3 0 0 0 .026-.07c.264-1.22-5.581-8.565-8.312-17.644a43 43 0 0 1 4.675-3.22c1.103 7.182 5.36 12.632 6.178 11.646a.5.5 0 0 0 .09-.168c.447-1.35-2.033-7.103-2.785-13.357 4.596-2.225 8.46-3.133 9.555-2.934 2.263.411 5.24 1.12 8.797 9.676-2.848 7.052-7.525 12.477-5.875 13.324 1.388.712 4.552-4.408 6.923-10.62.676 1.868 1.371 4.037 2.085 6.535-4.528 6.073-10.983 12.062-9.758 13.422 1.103 1.225 5.892-3.766 10.63-10.226.91 3.603 1.232 7.047 1.017 10.223-4.554 2.995-9.247 5.672-8.373 6.607.734.785 4.15-.674 7.888-3.057a23 23 0 0 1-.727 2.665"/></svg>
