<svg xmlns="http://www.w3.org/2000/svg" viewBox="0 0 46 40" fill="currentColor" shape-rendering="crispEdges">
  <rect x="16" y="2" width="2" height="6"/>
  <rect x="18" y="4" width="2" height="20"/>
  <rect x="20" y="6" width="2" height="20"/>
  <rect x="10" y="8" width="4" height="10"/>
  <rect x="22" y="8" width="2" height="20"/>
  <rect x="8" y="10" width="2" height="8"/>
  <rect x="24" y="10" width="2" height="18"/>
  <rect x="6" y="12" width="2" height="6"/>
  <rect x="14" y="12" width="2" height="8"/>
  <rect x="26" y="12" width="2" height="16"/>
  <rect x="4" y="14" width="2" height="4"/>
  <rect x="28" y="14" width="2" height="14"/>
  <rect x="2" y="16" width="2" height="2"/>
  <rect x="16" y="16" width="2" height="6"/>
  <rect x="30" y="18" width="2" height="10"/>
  <rect x="32" y="20" width="12" height="2"/>
  <rect x="32" y="22" width="6" height="4"/>
  <rect x="38" y="24" width="4" height="2"/>
  <rect x="32" y="26" width="4" height="2"/>
</svg>
