<svg xmlns="http://www.w3.org/2000/svg" viewBox="0 0 17 35" fill="currentColor" shape-rendering="crispEdges">
  <rect x="7" y="0" width="3" height="35"/>
  <rect x="6" y="1" width="1" height="34"/>
  <rect x="10" y="1" width="1" height="34"/>
  <rect x="5" y="2" width="1" height="32"/>
  <rect x="11" y="2" width="1" height="32"/>
  <rect x="14" y="4" width="1" height="15"/>
  <rect x="13" y="5" width="1" height="15"/>
  <rect x="15" y="5" width="1" height="13"/>
  <rect x="12" y="6" width="1" height="14"/>
  <rect x="16" y="6" width="1" height="11"/>
  <rect x="2" y="8" width="1" height="15"/>
  <rect x="1" y="9" width="1" height="13"/>
  <rect x="3" y="9" width="1" height="15"/>
  <rect x="0" y="10" width="1" height="11"/>
  <rect x="4" y="10" width="1" height="14"/>
</svg>
