<svg xmlns="http://www.w3.org/2000/svg" viewBox="0 0 25 50" fill="currentColor" shape-rendering="crispEdges">
  <rect x="10" y="1" width="5" height="46"/>
  <rect x="9" y="2" width="1" height="45"/>
  <rect x="15" y="2" width="1" height="45"/>
  <rect x="20" y="11" width="3" height="17"/>
  <rect x="19" y="12" width="1" height="19"/>
  <rect x="23" y="12" width="1" height="15"/>
  <rect x="2" y="13" width="3" height="17"/>
  <rect x="1" y="14" width="1" height="15"/>
  <rect x="5" y="14" width="1" height="18"/>
  <rect x="6" y="27" width="3" height="5"/>
  <rect x="16" y="27" width="3" height="4"/>
  <rect x="20" y="28" width="2" height="1"/>
  <rect x="20" y="29" width="1" height="1"/>
  <rect x="3" y="30" width="2" height="1"/>
  <rect x="4" y="31" width="1" height="1"/>
  <rect x="19" y="45" width="1" height="1"/>
  <rect x="5" y="46" width="1" height="1"/>
  <rect x="7" y="46" width="2" height="1"/>
  <rect x="16" y="48" width="1" height="1"/>
</svg>
