<svg xmlns="http://www.w3.org/2000/svg" viewBox="0 0 25 50" fill="currentColor" shape-rendering="crispEdges">
  <rect x="10" y="0" width="5" height="48"/>
  <rect x="9" y="1" width="1" height="47"/>
  <rect x="15" y="1" width="1" height="48"/>
  <rect x="8" y="2" width="1" height="46"/>
  <rect x="16" y="2" width="1" height="48"/>
  <rect x="20" y="10" width="3" height="19"/>
  <rect x="19" y="11" width="1" height="21"/>
  <rect x="23" y="11" width="1" height="17"/>
  <rect x="2" y="12" width="3" height="19"/>
  <rect x="18" y="12" width="1" height="20"/>
  <rect x="24" y="12" width="1" height="15"/>
  <rect x="1" y="13" width="1" height="17"/>
  <rect x="5" y="13" width="1" height="20"/>
  <rect x="0" y="14" width="1" height="15"/>
  <rect x="6" y="14" width="1" height="19"/>
  <rect x="7" y="26" width="1" height="7"/>
  <rect x="17" y="26" width="1" height="6"/>
  <rect x="20" y="29" width="2" height="1"/>
  <rect x="20" y="30" width="1" height="1"/>
  <rect x="3" y="31" width="2" height="1"/>
  <rect x="4" y="32" width="1" height="1"/>
  <rect x="19" y="44" width="1" height="3"/>
  <rect x="5" y="45" width="1" height="3"/>
  <rect x="7" y="45" width="1" height="3"/>
  <rect x="18" y="45" width="1" height="1"/>
  <rect x="20" y="45" width="1" height="1"/>
  <rect x="4" y="46" width="1" height="1"/>
  <rect x="6" y="46" width="1" height="1"/>
  <rect x="17" y="48" width="1" height="1"/>
</svg>
