<svg xmlns="http://www.w3.org/2000/svg" viewBox="0 0 44 47" fill="currentColor" shape-rendering="crispEdges">
  <rect x="22" y="0" width="20" height="15"/>
  <rect x="20" y="2" width="2" height="45"/>
  <rect x="42" y="4" width="2" height="11"/>
  <rect x="2" y="15" width="4" height="16"/>
  <rect x="18" y="15" width="2" height="26"/>
  <rect x="22" y="15" width="18" height="4"/>
  <rect x="0" y="17" width="2" height="12"/>
  <rect x="15" y="17" width="3" height="26"/>
  <rect x="12" y="19" width="3" height="24"/>
  <rect x="22" y="19" width="14" height="8"/>
  <rect x="6" y="21" width="6" height="14"/>
  <rect x="22" y="27" width="10" height="3"/>
  <rect x="22" y="30" width="8" height="5"/>
  <rect x="4" y="31" width="2" height="2"/>
  <rect x="8" y="35" width="4" height="4"/>
  <rect x="22" y="35" width="6" height="4"/>
  <rect x="10" y="39" width="2" height="2"/>
  <rect x="22" y="39" width="4" height="8"/>
  <rect x="26" y="43" width="2" height="4"/>
</svg>
