<svg xmlns="http://www.w3.org/2000/svg" viewBox="0 0 59 47" fill="currentColor" shape-rendering="crispEdges">
  <rect x="0" y="17" width="6" height="10"/>
  <rect x="37" y="18" width="20" height="17"/>
  <rect x="6" y="19" width="4" height="14"/>
  <rect x="14" y="19" width="21" height="20"/>
  <rect x="35" y="20" width="2" height="22"/>
  <rect x="57" y="20" width="2" height="13"/>
  <rect x="10" y="21" width="4" height="14"/>
  <rect x="2" y="27" width="4" height="2"/>
  <rect x="4" y="29" width="2" height="2"/>
  <rect x="8" y="33" width="2" height="2"/>
  <rect x="11" y="35" width="3" height="12"/>
  <rect x="39" y="35" width="16" height="2"/>
  <rect x="9" y="38" width="2" height="2"/>
  <rect x="37" y="38" width="2" height="2"/>
  <rect x="14" y="39" width="5" height="8"/>
  <rect x="23" y="39" width="12" height="2"/>
  <rect x="29" y="41" width="6" height="1"/>
</svg>
