<svg xmlns="http://www.w3.org/2000/svg" viewBox="0 0 59 47" fill="currentColor" shape-rendering="crispEdges">
  <rect x="2" y="19" width="2" height="6"/>
  <rect x="39" y="20" width="16" height="3"/>
  <rect x="4" y="21" width="4" height="6"/>
  <rect x="16" y="21" width="17" height="15"/>
  <rect x="37" y="22" width="2" height="11"/>
  <rect x="55" y="22" width="2" height="9"/>
  <rect x="8" y="23" width="8" height="8"/>
  <rect x="33" y="23" width="4" height="10"/>
  <rect x="39" y="23" width="2" height="12"/>
  <rect x="43" y="23" width="12" height="8"/>
  <rect x="41" y="25" width="2" height="10"/>
  <rect x="6" y="27" width="2" height="2"/>
  <rect x="10" y="31" width="6" height="2"/>
  <rect x="43" y="31" width="4" height="4"/>
  <rect x="12" y="33" width="4" height="2"/>
  <rect x="33" y="33" width="2" height="3"/>
  <rect x="47" y="33" width="6" height="2"/>
  <rect x="14" y="35" width="2" height="2"/>
  <rect x="16" y="36" width="10" height="1"/>
  <rect x="31" y="36" width="2" height="4"/>
  <rect x="13" y="37" width="2" height="4"/>
  <rect x="19" y="37" width="6" height="2"/>
  <rect x="33" y="38" width="2" height="2"/>
  <rect x="15" y="39" width="2" height="2"/>
  <rect x="19" y="39" width="4" height="2"/>
  <rect x="19" y="41" width="2" height="4"/>
  <rect x="21" y="43" width="2" height="2"/>
</svg>
