<svg xmlns="http://www.w3.org/2000/svg" viewBox="0 0 44 47" fill="currentColor" shape-rendering="crispEdges">
  <rect x="24" y="2" width="16" height="3"/>
  <rect x="22" y="4" width="2" height="41"/>
  <rect x="40" y="4" width="2" height="9"/>
  <rect x="24" y="5" width="2" height="30"/>
  <rect x="28" y="5" width="12" height="8"/>
  <rect x="26" y="7" width="2" height="26"/>
  <rect x="28" y="13" width="4" height="4"/>
  <rect x="32" y="15" width="6" height="2"/>
  <rect x="2" y="17" width="2" height="12"/>
  <rect x="20" y="17" width="2" height="22"/>
  <rect x="28" y="17" width="2" height="13"/>
  <rect x="17" y="19" width="3" height="18"/>
  <rect x="4" y="21" width="2" height="10"/>
  <rect x="14" y="21" width="3" height="18"/>
  <rect x="30" y="21" width="4" height="2"/>
  <rect x="6" y="23" width="2" height="10"/>
  <rect x="12" y="23" width="2" height="22"/>
  <rect x="32" y="23" width="2" height="2"/>
  <rect x="8" y="25" width="4" height="10"/>
  <rect x="10" y="35" width="2" height="2"/>
  <rect x="17" y="37" width="1" height="2"/>
  <rect x="14" y="39" width="2" height="2"/>
  <rect x="14" y="43" width="2" height="2"/>
  <rect x="24" y="43" width="2" height="2"/>
</svg>
